<svg width="98" height="98" viewBox="0 0 98 98" fill="none" xmlns="http://www.w3.org/2000/svg">
<path d="M82.954 15.0469L82.9534 15.0463C76.2386 8.3381 67.6857 3.77121 58.3759 1.92292C49.0661 0.074639 39.4173 1.02794 30.6492 4.66233C21.8811 8.29671 14.3873 14.449 9.11507 22.3416C3.84284 30.2341 1.02887 39.5125 1.02887 49.0041C1.02887 58.4956 3.84284 67.774 9.11507 75.6665C14.3873 83.5591 21.8811 89.7114 30.6492 93.3458C39.4173 96.9802 49.0661 97.9335 58.3759 96.0852C67.6857 94.2369 76.2386 89.67 82.9534 82.9618L82.954 82.9612C91.9467 73.9482 96.997 61.736 96.997 49.0041C96.997 36.2721 91.9467 24.0599 82.954 15.0469ZM80.5042 80.5058C74.2744 86.7296 66.3393 90.9668 57.7019 92.6818C49.0643 94.3969 40.1121 93.5126 31.9769 90.1407C23.8418 86.7688 16.889 81.0607 11.9973 73.7381C7.10566 66.4154 4.49482 57.8068 4.49482 49.0005C4.49482 40.1943 7.10566 31.5857 11.9973 24.263C16.889 16.9404 23.8418 11.2323 31.9769 7.86042C40.1121 4.48854 49.0643 3.60423 57.7019 5.31926C66.3393 7.03425 74.2744 11.2715 80.5042 17.4953C88.8467 25.858 93.5318 37.1882 93.5318 49.0005C93.5318 60.8129 88.8467 72.1431 80.5042 80.5058Z" fill="#5C5C5C" stroke="#5C5C5C"/>
<path d="M37.0299 24.7986L37.0297 24.7988L15.717 47.6477L15.7169 47.6477C15.6728 47.695 15.6382 47.741 15.6118 47.7806C15.2112 48.2605 14.998 48.8718 15 49.495L15 49.4953C15.0012 49.8315 15.0639 50.1655 15.1861 50.4791C15.3079 50.7924 15.487 51.0816 15.7165 51.3289L15.7181 51.3306L37.0259 74.1822C37.2553 74.433 37.5324 74.637 37.8433 74.7788C38.1566 74.9217 38.4961 74.9976 38.8415 74.9999C39.1868 75.0023 39.5273 74.931 39.8426 74.7922C40.1576 74.6536 40.4391 74.4513 40.6726 74.201C40.906 73.9508 41.0872 73.6571 41.2091 73.3388C41.331 73.0205 41.392 72.6816 41.39 72.3411C41.388 72.0006 41.323 71.6625 41.1973 71.3456C41.0724 71.0309 40.8892 70.7413 40.655 70.4951L23.5319 52.1344H81.4679C82.1628 52.1344 82.8139 51.8378 83.2825 51.3354C83.749 50.8353 84 50.1711 84 49.4918C84 48.8126 83.749 48.1483 83.2825 47.6482C82.8139 47.1458 82.1628 46.8492 81.4679 46.8492H23.5322L40.6586 28.4873C41.1252 27.9873 41.3765 27.323 41.3767 26.6437C41.3768 25.9643 41.126 25.2999 40.6596 24.7997C40.1911 24.2971 39.54 24.0002 38.845 24C38.15 23.9998 37.4987 24.2962 37.0299 24.7986Z" fill="#5C5C5C" stroke="#5C5C5C" stroke-width="2"/>
</svg>
