<svg width="108" height="100" viewBox="0 0 108 100" fill="none" xmlns="http://www.w3.org/2000/svg">
<g clip-path="url(#clip0_19_305)">
<path d="M39.1402 31.7987L60.8269 9.66306C62.9955 7.44949 62.9955 3.87374 60.8269 1.66017C58.6582 -0.553391 54.9881 -0.553391 52.9863 1.66017L31.2997 23.9661C29.131 26.1797 29.131 29.9257 31.2997 31.969C33.3015 34.0123 36.9715 34.1825 39.1402 31.7987Z" fill="black"/>
<path d="M58.6582 59.894C60.8269 62.1075 64.3301 62.1075 66.4987 59.894L88.3522 37.588C90.5209 35.3745 90.5209 31.7987 88.3522 29.5852C86.1836 27.3716 82.5135 27.3716 80.5117 29.5852L58.825 51.8911C56.3227 54.1046 56.4895 57.6804 58.6582 59.894Z" fill="black"/>
<path d="M41.3089 34.5231L56.1559 49.6775C56.1559 49.5072 56.3227 49.5072 56.3227 49.5072L78.0094 27.3716L78.1762 27.2013L63.3292 12.0469L63.1624 12.2171L41.4757 34.3528C41.4757 34.3528 41.3089 34.3528 41.3089 34.5231Z" fill="black"/>
<path d="M42.3098 40.3124L2.77337 78.4538C-0.229392 81.3485 -0.229392 86.1161 2.60655 89.0108C5.60932 92.0757 10.2803 91.9055 12.9494 88.8405L50.3172 48.3153L42.3098 40.3124Z" fill="black"/>
<path d="M53.8204 79.9863V83.0512H51.4849C48.8158 83.0512 46.6472 85.2648 46.6472 87.9892V92.4163H103.867V87.9892C103.867 85.2648 101.698 83.0512 99.0287 83.0512H96.6933V79.9863C96.6933 77.2619 94.5246 75.0483 91.8555 75.0483H58.6582C55.9891 75.0483 53.8204 77.2619 53.8204 79.9863Z" fill="black"/>
<path d="M105.535 95.9921H44.6453C43.6444 95.9921 42.9771 96.6732 42.9771 97.6948C42.9771 98.7165 43.6444 99.3975 44.6453 99.3975H105.535C106.536 99.3975 107.203 98.7165 107.203 97.6948C107.203 96.6732 106.536 95.9921 105.535 95.9921Z" fill="black"/>
</g>
<defs>
<clipPath id="clip0_19_305">
<rect width="107" height="100" fill="white" transform="translate(0.5)"/>
</clipPath>
</defs>
</svg>
