<svg width="70" height="70" viewBox="0 0 70 70" fill="none" xmlns="http://www.w3.org/2000/svg">
<g clip-path="url(#clip0_19_286)">
<rect width="70" height="70" fill="white"/>
<path d="M29.642 21.3014C29.642 19.8043 30.8561 18.5913 32.3545 18.5913C33.8516 18.5913 35.0656 19.8043 35.0656 21.3014V37.796L46.3654 42.7588C47.734 43.3612 48.3561 44.9581 47.7531 46.3254C47.1502 47.6942 45.552 48.3144 44.1834 47.7119L31.4002 42.0976C30.3734 41.7124 29.642 40.722 29.642 39.5609V21.3014ZM1.26875 20.9722C1.19493 20.7154 1.15528 20.4436 1.15528 20.1635L1.17715 10.1356C1.17715 8.51828 2.48829 7.20827 4.10704 7.20827C5.72442 7.20827 7.03692 8.51828 7.03692 10.1356L7.02872 13.9413C8.77098 11.6259 10.7955 9.53666 13.0553 7.72189C15.3494 5.88187 17.9184 4.30139 20.7361 3.04466C29.5682 -0.890825 39.1522 -0.879898 47.5098 2.31931C55.8045 5.49392 62.8988 11.809 66.8568 20.5214C66.9334 20.6594 66.9977 20.8042 67.0496 20.9545C70.89 29.7174 70.8545 39.2044 67.6785 47.4838C64.6256 55.4463 58.6729 62.2996 50.4793 66.3321C50.4273 66.3621 50.3754 66.3894 50.3207 66.4168C48.6199 67.2555 46.8398 67.9549 45.0242 68.5068C44.3461 68.7062 43.6406 68.642 43.0172 68.3073C40.9527 67.1968 41.259 64.1464 43.4998 63.4648C44.7002 63.096 45.8678 62.663 47.0094 62.1534C47.0654 62.1247 47.1242 62.0988 47.183 62.0742C47.4564 61.9499 47.7285 61.8215 47.9979 61.689C48.0703 61.6535 48.1441 61.6207 48.2193 61.592C55.14 58.1633 60.1713 52.3564 62.758 45.6124C65.4828 38.5036 65.4979 30.3622 62.1551 22.8737L62.1537 22.871C58.8096 15.3825 52.742 9.95669 45.6354 7.23696C38.5205 4.51312 30.3734 4.49946 22.8785 7.83937C20.5404 8.87904 18.3462 10.2155 16.3502 11.8158C14.4142 13.3699 12.682 15.1617 11.1945 17.1488L13.5324 17.0162C15.1498 16.9275 16.5348 18.1664 16.6236 19.7838C16.7125 21.3998 15.4725 22.7836 13.8537 22.8723L4.32305 23.4106C2.81641 23.4925 1.51211 22.4257 1.26875 20.9722ZM33.7613 69.9985C36.1607 70.0736 37.4104 67.1913 35.7109 65.4933C35.2229 65.0221 34.6309 64.7625 33.9527 64.7338C32.3231 64.6806 30.7426 64.4989 29.1416 64.1861C28.1135 63.9894 27.1127 64.3828 26.4906 65.2229C25.3764 66.7883 26.2213 68.9698 28.1107 69.351C29.9736 69.7194 31.8634 69.9359 33.7613 69.9985ZM17.4754 65.324C19.0818 66.2515 21.1039 65.313 21.4143 63.4798C21.5824 62.3911 21.0943 61.3489 20.1482 60.7833C18.7441 59.9651 17.4371 59.0471 16.1848 58.013C14.3035 56.464 11.5145 58.0568 11.8973 60.465C12.008 61.1071 12.3143 61.6384 12.8119 62.0605C14.2748 63.2735 15.8345 64.3649 17.4754 65.324ZM5.35254 53.5325C6.56661 55.46 9.47735 55.0584 10.1213 52.8714C10.3277 52.1392 10.2252 51.392 9.82461 50.7445C8.96465 49.3744 8.225 47.9414 7.59473 46.4511C6.74707 44.4376 3.94434 44.2696 2.86973 46.1724C2.46778 46.8759 2.41856 47.7406 2.73301 48.4865C3.46582 50.2309 4.34629 51.9302 5.35254 53.5325ZM0.0902387 37.4559C0.175004 38.6348 1.02129 39.6019 2.17793 39.8478C3.90606 40.1934 5.45782 38.8424 5.34844 37.0844C5.23223 35.4629 5.24864 33.8688 5.39219 32.2487C5.47286 31.287 5.05176 30.3827 4.25606 29.8349C2.58536 28.708 0.333598 29.7666 0.143559 31.7706C-0.0279932 33.6611 -0.0458251 35.5625 0.0902387 37.4559Z" fill="#5C5C5C"/>
</g>
<defs>
<clipPath id="clip0_19_286">
<rect width="70" height="70" fill="white"/>
</clipPath>
</defs>
</svg>
